<svg width="32" height="32" viewBox="0 0 32 32" fill="none"
    xmlns="http://www.w3.org/2000/svg">
    <path fill-rule="evenodd" clip-rule="evenodd" d="M13 17.3119C15.5055 17.3119 17.5366 15.2808 17.5366 12.7754C17.5366 10.2699 15.5055 8.23883 13 8.23883C10.4946 8.23883 8.4635 10.2699 8.4635 12.7754C8.4635 15.2808 10.4946 17.3119 13 17.3119Z" stroke="white" stroke-width="1.5" stroke-linecap="round" stroke-linejoin="round"/>
    <path d="M20 23.9104C18.9513 20.9438 16.1465 18.9604 13 18.9604C9.8535 18.9604 7.04871 20.9438 6 23.9104" stroke="white" stroke-width="1.5" stroke-linecap="round" stroke-linejoin="round"/>
    <path d="M25.0556 8.00001C25.5772 8.00002 26 8.42286 26 8.94446V8.94446C26 9.46606 25.5772 9.88891 25.0556 9.8889L23.9444 9.88889C23.4228 9.88889 23 9.46605 23 8.94445V8.94445C23 8.42285 23.4228 8 23.9444 8.00001L25.0556 8.00001ZM23 16.5C23 15.9784 23.4228 15.5555 23.9444 15.5556L25.0556 15.5556C25.5772 15.5556 26 15.9784 26 16.5V16.5C26 17.0216 25.5772 17.4445 25.0556 17.4444L23.9444 17.4444C23.4228 17.4444 23 17.0216 23 16.5V16.5ZM23 24.0555C23 23.5339 23.4228 23.1111 23.9445 23.1111L25.0556 23.1111C25.5772 23.1111 26 23.534 26 24.0556V24.0556C26 24.5772 25.5772 25 25.0556 25L23.9444 25C23.4228 25 23 24.5771 23 24.0555V24.0555Z" fill="white"/>
</svg>
